<svg xmlns="http://www.w3.org/2000/svg" viewBox="0 0 300 300" width="300" height="300">
  <g transform="translate(150, 150) scale(0.85) translate(-150, -150)">
    <path d="M150,12 C159,22 159,33 150,37 C141,33 141,22 150,12" fill="none" stroke="#FFD25A" stroke-width="2.5" stroke-linecap="round" opacity="0.9"/>
    <path d="M150.0,170.0 C123.0,152.0 111.8,110.0 134.2,68.0 C144.6,53.6 155.4,53.6 165.8,68.0 C188.2,110.0 177.0,152.0 150.0,170.0" fill="none" stroke="#9B8EC4" stroke-width="2.5" stroke-linecap="round" stroke-linejoin="round"/>
    <circle cx="150" cy="105" r="12" fill="none" stroke="#4ECDC4" stroke-width="2.3"/>
    <path d="M144,130 C134,135 120,147 108,160 C102,167 100,173 102,177" fill="none" stroke="#4ECDC4" stroke-width="2.3" stroke-linecap="round"/>
    <path d="M156,130 C166,135 180,147 192,160 C198,167 200,173 198,177" fill="none" stroke="#4ECDC4" stroke-width="2.3" stroke-linecap="round"/>
    <circle cx="150" cy="133" r="5" fill="#FFD25A" opacity="0.15"/>
    <circle cx="150" cy="133" r="2.5" fill="#FFD25A" opacity="0.25"/>
  </g>
</svg>
